<svg xmlns="http://www.w3.org/2000/svg" viewBox="0 0 12 12"><path fill-rule="evenodd" d="M9.917 4.12c-.274 1.009-1.196 1.75-2.292 1.75-1.095 0-2.017-.741-2.291-1.75h-4.283c-.307 0-.556-.28-.556-.625s.249-.625.556-.625h4.283c.274-1.008 1.196-1.75 2.292-1.75 1.095 0 2.017.742 2.291 1.75h.963c.345 0 .625.28.625.625s-.28.625-.625.625h-.963Zm-2.292.5c.622 0 1.126-.504 1.126-1.125s-.504-1.125-1.125-1.125c-.622 0-1.126.504-1.126 1.125s.504 1.125 1.125 1.125Z" clip-rule="evenodd"/><path fill-rule="evenodd" d="M10.954 7.875c.304 0 .55.28.55.625s-.246.625-.55.625h-4.288c-.274 1.009-1.196 1.75-2.291 1.75-1.096 0-2.018-.741-2.292-1.75h-.963c-.345 0-.625-.28-.625-.625s.28-.625.625-.625h.963c.274-1.008 1.196-1.75 2.292-1.75 1.095 0 2.017.742 2.291 1.75h4.288Zm-7.704.625c0 .621.503 1.125 1.125 1.125.62 0 1.125-.504 1.125-1.125s-.504-1.125-1.125-1.125c-.622 0-1.125.504-1.125 1.125Z" clip-rule="evenodd"/></svg>