<svg xmlns="http://www.w3.org/2000/svg" viewBox="0 0 12 12"><g clip-path="url(#a)"><path fill-rule="evenodd" d="M4.75.5h-2.25c-1.105 0-2 .895-2 2v2.25c0 .414.336.75.75.75h3.5c.414 0 .75-.336.75-.75v-3.5c0-.414-.336-.75-.75-.75Zm-.5 1.25h-1.75c-.414 0-.75.336-.75.75v1.75h2.5v-2.5Z" clip-rule="evenodd"/><path fill-rule="evenodd" d="M.5 7.25v2.25c0 1.105.895 2 2 2h2.25c.414 0 .75-.336.75-.75v-3.5c0-.414-.336-.75-.75-.75h-3.5c-.414 0-.75.336-.75.75Zm1.25.5v1.75c0 .414.336.75.75.75h1.75v-2.5h-2.5Z" clip-rule="evenodd"/><path fill-rule="evenodd" d="M9.5 11.5h-2.25c-.414 0-.75-.336-.75-.75v-3.5c0-.414.336-.75.75-.75h3.5c.414 0 .75.336.75.75v2.25c0 1.105-.895 2-2 2Zm0-1.25h-1.75v-2.5h2.5v1.75c0 .414-.336.75-.75.75Z" clip-rule="evenodd"/><path d="M6.5 3c0-.345.266-.625.595-.625h1.28v-1.28c0-.329.28-.595.625-.595s.625.266.625.595v1.28h1.28c.329 0 .595.28.595.625s-.267.625-.595.625h-1.28v1.28c0 .329-.28.595-.625.595s-.625-.266-.625-.595v-1.28h-1.28c-.329 0-.595-.28-.595-.625Z"/></g><defs><clipPath id="a"><path d="M0 0h12v12h-12z"/></clipPath></defs></svg>