<svg xmlns="http://www.w3.org/2000/svg" viewBox="0 0 12 12"><g clip-path="url(#a)"><path fill-rule="evenodd" d="M8.938.984c1.021.282 1.823 1.084 2.12 2.093.319 1.085.027 2.276-.778 3.082l-1.962 1.962c-.273.272-.637.433-1.022.45l-.048.003c-1.195.055-2.162-.962-2.045-2.154.034-.35.188-.676.437-.925l2.007-2.007c.244-.244.64-.244.884 0s.244.64 0 .884l-2.007 2.007c-.044.044-.071.101-.077.163-.043.433.309.803.744.783l.048-.002c.073-.003.143-.034.195-.086l1.962-1.962c.476-.476.655-1.191.462-1.845-.176-.601-.655-1.076-1.252-1.24-.624-.173-1.293.004-1.751.462l-4.056 4.056c-.465.465-.665 1.132-.532 1.776l.028.135c.124.597.557 1.086 1.137 1.28.615.205 1.294.046 1.751-.412.244-.244.64-.244.884 0s.244.64 0 .884c-.793.794-1.969 1.069-3.032.713-1-.335-1.75-1.177-1.964-2.212l-.028-.135c-.218-1.056.11-2.15.872-2.913l4.056-4.056c.776-.776 1.91-1.075 2.967-.784Z" clip-rule="evenodd"/></g><defs><clipPath id="a"><path d="M0 0h12v12h-12z"/></clipPath></defs></svg>