<svg xmlns="http://www.w3.org/2000/svg" viewBox="0 0 16 16"><g clip-path="url(#a)"><path d="M14.746 1.104c.196-.196.196-.512 0-.708l-1.06-1.06c-.195-.195-.512-.195-.707 0l-.957.957 1.767 1.768.957-.957Z"/><path d="m13.082 2.768-1.768-1.768-3.699 3.699c-.373.373-.583.88-.585 1.407l-.003.698c0 .139.112.251.251.25l.698-.001c.528-.002 1.034-.213 1.407-.586l3.7-3.7Z"/><path d="M3.5 2.75c0-.69.56-1.25 1.25-1.25h3.25c.414 0 .75-.336.75-.75s-.336-.75-.75-.75h-3.25c-1.519 0-2.75 1.231-2.75 2.75v10.5c0 1.519 1.231 2.75 2.75 2.75h6.5c1.519 0 2.75-1.231 2.75-2.75v-7.25c0-.414-.336-.75-.75-.75s-.75.336-.75.75v7.25c0 .69-.56 1.25-1.25 1.25h-6.5c-.69 0-1.25-.56-1.25-1.25v-10.5Z"/><path d="M5.75 8.5c-.414 0-.75.336-.75.75s.336.75.75.75h4.5c.414 0 .75-.336.75-.75s-.336-.75-.75-.75h-4.5Z"/><path d="M5 12.25c0-.414.336-.75.75-.75h2.75c.414 0 .75.336.75.75s-.336.75-.75.75h-2.75c-.414 0-.75-.336-.75-.75Z"/></g><defs><clipPath id="a"><path d="M0 0h16v16h-16z"/></clipPath></defs></svg>