<svg xmlns="http://www.w3.org/2000/svg" viewBox="0 0 12 12"><g clip-path="url(#a)"><path d="M6.231 2.375c-.345 0-.625.28-.625.625s.28.625.625.625h1.75c.345 0 .625-.28.625-.625s-.28-.625-.625-.625h-1.75Z"/><path d="M6.231 4.375c-.345 0-.625.28-.625.625s.28.625.625.625h1.75c.345 0 .625-.28.625-.625s-.28-.625-.625-.625h-1.75Z"/><path fill-rule="evenodd" d="M2.5.375c-.897 0-1.625.728-1.625 1.625v7.75c0 1.036.84 1.875 1.875 1.875h7.75c.345 0 .625-.28.625-.625s-.28-.625-.625-.625h-.375v-1.375c.587-.244 1-.824 1-1.5v-5.5c0-.897-.727-1.625-1.625-1.625h-7Zm0 1.25h.375v6.25h-.125c-.22 0-.43.038-.625.107v-5.982c0-.207.168-.375.375-.375Zm1.625 0v6.25h5.375c.207 0 .375-.168.375-.375v-5.5c0-.207-.168-.375-.375-.375h-5.375Zm-1.375 7.5h6.125v1.25h-6.125c-.345 0-.625-.28-.625-.625s.28-.625.625-.625Z" clip-rule="evenodd"/></g><defs><clipPath id="a"><path d="M0 0h12v12h-12z"/></clipPath></defs></svg>