<svg xmlns="http://www.w3.org/2000/svg" viewBox="0 0 12 12"><path d="M11.625 1.75c0-.345-.28-.625-.625-.625s-.625.28-.625.625v8c0 .345.28.625.625.625s.625-.28.625-.625v-8Z"/><path d="M1.625 5c0-.345-.28-.625-.625-.625s-.625.28-.625.625v4.75c0 .345.28.625.625.625s.625-.28.625-.625v-4.75Z"/><path d="M4.875 5c0-.345-.28-.625-.625-.625s-.625.28-.625.625v4.75c0 .345.28.625.625.625s.625-.28.625-.625v-4.75Z"/><path d="M7.5 4.375c.345 0 .625.28.625.625v4.75c0 .345-.28.625-.625.625s-.625-.28-.625-.625v-4.75c0-.345.28-.625.625-.625Z"/></svg>