<svg xmlns="http://www.w3.org/2000/svg" viewBox="0 0 12 12"><path fill-rule="evenodd" d="M1.308 1.093c-.345 0-.625.28-.625.625s.28.625.625.625h4.833c.556 0 1.057.335 1.27.848l.519 1.252c.145.35.429.625.783.759l1.751.663c.146.055.243.195.243.35v.925c0 .14-.08.26-.197.319-.378-.288-.85-.459-1.361-.459-.534 0-1.025.186-1.41.497h-2.52c.014-.051.021-.105.021-.16 0-.346-.28-.626-.625-.626h-3.544c-.345 0-.625.28-.625.625 0 .333.26.604.586.624-.256.365-.406.81-.406 1.29 0 1.243 1.008 2.25 2.25 2.25 1.243 0 2.25-1.007 2.25-2.25 0-.173-.02-.341-.056-.503h1.885c-.037.162-.056.33-.056.503 0 1.243 1.007 2.25 2.25 2.25 1.242 0 2.25-1.007 2.25-2.25 0-.276-.05-.54-.14-.784.421-.29.698-.776.698-1.326v-.925c0-.675-.418-1.28-1.05-1.52l-1.751-.662c-.032-.012-.058-.037-.071-.07l-.52-1.25c-.406-.98-1.363-1.62-2.424-1.62h-4.833Zm1.568 9.157c.553 0 1-.448 1-1s-.447-1-1-1c-.552 0-1 .448-1 1s.448 1 1 1Zm7.273-1c0 .552-.448 1-1 1-.553 0-1-.448-1-1s.447-1 1-1c.552 0 1 .448 1 1Z" clip-rule="evenodd"/><path d="M.001 4.907c0-.345.28-.625.625-.625h3.78c.345 0 .625.28.625.625s-.28.625-.625.625h-3.78c-.345 0-.625-.28-.625-.625Z"/></svg>