<svg xmlns="http://www.w3.org/2000/svg" viewBox="0 0 16 16"><g clip-path="url(#a)"><path d="M-.5.75c0-.414.336-.75.75-.75h10.5c.414 0 .75.336.75.75s-.336.75-.75.75h-9.75v8.25c0 .414-.336.75-.75.75s-.75-.336-.75-.75v-9Z"/><path fill-rule="evenodd" d="M2.75 2.5c-.414 0-.75.336-.75.75v9c0 .414.336.75.75.75h4.5c.414 0 .75-.336.75-.75s-.336-.75-.75-.75h-3.75v-5h9v.75c0 .414.336.75.75.75s.75-.336.75-.75v-4c0-.414-.336-.75-.75-.75h-10.5Zm9.75 2.5v-1h-9v1h9Z"/><path d="M10.25 12.902c-.414 0-.75-.336-.75-.75s.336-.75.75-.75h3.243l-.841-.841c-.293-.293-.293-.768 0-1.061.293-.293.767-.293 1.06 0l2.122 2.121c.293.293.293.768 0 1.061l-2.122 2.121c-.293.293-.768.293-1.06 0-.293-.293-.293-.767 0-1.06l.84-.841h-3.242Z"/></g><defs><clipPath id="a"><path d="M0 0h16v16h-16z"/></clipPath></defs></svg>