<svg xmlns="http://www.w3.org/2000/svg" viewBox="0 0 12 12"><path d="M3.51 4.181c-.315-.143-.685-.004-.829.31-.143.314-.004.684.31.828l2.75 1.254c.164.075.354.075.518 0l2.75-1.254c.314-.144.453-.514.31-.828-.144-.314-.514-.453-.828-.31l-2.491 1.136-2.49-1.136Z"/><path fill-rule="evenodd" d="M.25 3.5c0-1.105.895-2 2-2h7.5c1.105 0 2 .895 2 2v5c0 1.105-.895 2-2 2h-7.5c-1.105 0-2-.895-2-2v-5Zm2-.75h7.5c.414 0 .75.336.75.75v5c0 .414-.336.75-.75.75h-7.5c-.414 0-.75-.336-.75-.75v-5c0-.414.336-.75.75-.75Z" clip-rule="evenodd"/></svg>