<svg xmlns="http://www.w3.org/2000/svg" viewBox="0 0 16 16"><g clip-path="url(#a)"><path fill-rule="evenodd" d="M6.729.126c-1.118-.745-2.42-.876-3.229-.876-.414 0-.75.336-.75.75 0 1.713.507 2.923 1.277 3.745-.561.12-1.046.326-1.458.615-1.235.867-1.569 2.303-1.569 3.64 0 1.386.478 3.14 1.29 4.53.782 1.336 2.055 2.618 3.746 2.47.698-.003 1.457-.09 1.964-.162.507.071 1.266.159 1.964.162 1.691.148 2.964-1.134 3.746-2.47.812-1.39 1.29-3.144 1.29-4.53 0-1.337-.334-2.773-1.57-3.64-.874-.614-2.076-.852-3.646-.694l1.073-1.475c.243-.335.17-.804-.166-1.047-.335-.244-.804-.17-1.048.165l-1.087 1.496c-.316-1.258-.99-2.12-1.827-2.679Zm.471 3.569c-.53-.076-1.104-.24-1.596-.569-.589-.392-1.14-1.068-1.304-2.32.53.075 1.104.24 1.596.568.589.392 1.14 1.068 1.304 2.32Zm-3.77 1.893c-.64.45-.93 1.264-.93 2.412 0 1.1.397 2.595 1.085 3.772.712 1.22 1.55 1.81 2.34 1.732.025-.003.05-.004.075-.004.649 0 1.401-.09 1.892-.162.071-.01.145-.01.216 0 .491.072 1.243.162 1.892.162.025 0 .05.001.075.004.79.079 1.628-.513 2.34-1.732.688-1.177 1.085-2.672 1.085-3.772 0-1.148-.29-1.962-.93-2.412-.667-.467-1.954-.719-4.388-.11-.12.03-.244.03-.364 0-2.434-.609-3.721-.357-4.387.11Z"/></g><defs><clipPath id="a"><path d="M0 0h16v16h-16z"/></clipPath></defs></svg>