<svg xmlns="http://www.w3.org/2000/svg" viewBox="0 0 12 12"><g clip-path="url(#a)"><path fill-rule="evenodd" d="M10.073 1c0-.345-.28-.625-.625-.625s-.625.28-.625.625v3.15l-.812-1.963c-.33-.794-1.104-1.312-1.964-1.312h-3.027c-.373 0-.675.302-.675.675v2.818h-1.104c-.373 0-.675.302-.675.675v2.947c-.352.397-.566.92-.566 1.492 0 1.243 1.007 2.25 2.25 2.25s2.25-1.007 2.25-2.25c0-.07-.003-.141-.01-.21h1.77c-.007.069-.01.139-.01.21 0 1.243 1.007 2.25 2.25 2.25s2.25-1.007 2.25-2.25c0-.453-.134-.875-.364-1.228h.975c.345 0 .625-.28.625-.625s-.28-.625-.625-.625h-1.288v-6.004Zm-1.243 6.256c-.005-.042-.007-.084-.007-.127v-.588h-3.661l-2.312-.923h-1.034v1.656c.14-.027.286-.042.434-.042.685 0 1.299.306 1.711.79h2.828c.412-.484 1.026-.79 1.711-.79.112 0 .222.008.33.024Zm-5.235-5.131v2.445l1.807.721h2.54l-1.086-2.626c-.136-.327-.455-.54-.809-.54h-2.452Zm-1.345 8.357c.552 0 1-.447 1-1 0-.552-.448-1-1-1s-1 .448-1 1c0 .553.448 1 1 1Zm7.25-1c0 .553-.448 1-1 1s-1-.447-1-1c0-.552.448-1 1-1s1 .448 1 1Z" clip-rule="evenodd"/></g><defs><clipPath id="a"><path d="M0 0h12v12h-12z"/></clipPath></defs></svg>