<svg xmlns="http://www.w3.org/2000/svg" viewBox="0 0 12 12"><g clip-path="url(#a)"><path fill-rule="evenodd" d="M11.5 6c0 3.038-2.462 5.5-5.5 5.5s-5.5-2.462-5.5-5.5 2.462-5.5 5.5-5.5 5.5 2.462 5.5 5.5Zm-9.75 0c0-.369.047-.726.135-1.067.113.091.248.206.392.337.386.352.76.76.93 1.108.086.176.087.337.088.654v.093c.003.353.025.872.452 1.342.378.415.873.477 1.136.51l.047.006c.305.04.326.069.353.103.027.036.067.12.083.283.017.158.007.343-.02.534-.014.102-.033.2-.052.289-2.011-.337-3.544-2.085-3.544-4.192Zm4.834 4.077-.021.136c1.442-.19 2.656-1.104 3.265-2.365-.123 0-.254-.005-.38-.021-.147-.018-.428-.065-.645-.254-.196-.171-.317-.392-.33-.653-.005-.105.009-.196.019-.251l.014-.07v-.003l.01-.045.002-.017-.009-.016c-.021-.003-.046-.007-.077-.01-.12-.016-.261-.028-.43-.042l-.275-.024c-.553-.05-1.314-.137-1.937-.418-.856-.386-1.028-1.41-.606-2.106l.23-.38.143-.503c.185-.645.73-1.076 1.338-1.19-.289-.062-.588-.095-.895-.095-1.519 0-2.852.797-3.603 1.995l.002.002.172.133c.142.113.337.274.548.466.404.368.932.91 1.211 1.484.22.451.218.906.216 1.192v.095c.002.3.03.403.126.509.046.05.095.075.42.118l.027.003c.274.036.793.103 1.158.581.22.288.303.625.333.913.03.293.009.587-.026.836Zm2.034-7.426c-.15.093-.317.16-.47.21-.322.104-.692.168-.993.207-.208.028-.354.163-.396.311l-.162.566c-.019.065-.046.128-.081.186l-.263.435c-.043.07-.05.148-.035.21.015.057.045.09.086.108.409.185.973.262 1.536.313l.233.02c.186.016.37.032.518.05.107.014.225.033.333.063.08.022.28.08.433.248.184.202.311.413.372.641.038.143.044.271.038.378.053.002.112.001.173-.001.097-.004.19-.01.271-.018.026-.19.039-.382.039-.578 0-1.36-.639-2.57-1.632-3.349Zm-.026 3.884c.017.006.02.005 0 0Z" clip-rule="evenodd"/></g><defs><clipPath id="a"><path d="M0 0h12v12h-12z"/></clipPath></defs></svg>