<svg xmlns="http://www.w3.org/2000/svg" viewBox="0 0 12 11"><g fill-rule="evenodd" clip-path="url(#a)" clip-rule="evenodd"><path d="M6 1.704c.256 0 .485.156.58.393l1.662 4.154c.128.32-.028.684-.348.813-.32.128-.685-.028-.813-.349l-.175-.437h-1.812l-.175.437c-.129.32-.492.477-.813.349-.32-.129-.476-.492-.348-.813l1.662-4.154c.095-.237.324-.393.58-.393Zm-.406 3.324h.812l-.406-1.016-.406 1.016Z"/><path d="M6.682 9.263h2.318c1.657 0 3-1.343 3-3v-3.263c0-1.657-1.343-3-3-3h-6c-1.657 0-3 1.343-3 3v3.263c0 1.657 1.343 3 3 3h.215v.987c0 .607.683.962 1.18.614l2.287-1.601Zm-.394-1.25h2.712c.966 0 1.75-.784 1.75-1.75v-3.263c0-.966-.784-1.75-1.75-1.75h-6c-.966 0-1.75.784-1.75 1.75v3.263c0 .966.784 1.75 1.75 1.75h1.465v1.276l1.823-1.276Z"/></g><defs><clipPath id="a"><path d="M0 0h12v11h-12z"/></clipPath></defs></svg>