<svg xmlns="http://www.w3.org/2000/svg" viewBox="0 0 12 12"><g clip-path="url(#a)"><path d="M6.625.628c0-.345-.28-.625-.625-.625s-.625.28-.625.625v.25c0 .346.28.625.625.625s.625-.28.625-.625v-.25Z"/><path fill-rule="evenodd" d="M8.35 8.733c-.277.2-.411.551-.411.892 0 1.036-.855 1.875-1.89 1.875-1.036 0-1.89-.84-1.89-1.875 0-.316-.133-.637-.395-.813-1.036-.694-1.715-1.857-1.715-3.174 0-2.127 1.769-3.85 3.951-3.85 2.182 0 3.951 1.723 3.951 3.85 0 1.268-.63 2.394-1.602 3.095Zm-.732-1.013c.667-.482 1.083-1.24 1.083-2.082 0-1.406-1.178-2.6-2.701-2.6-1.523 0-2.701 1.194-2.701 2.6 0 .874.449 1.659 1.16 2.136.228.152.408.336.547.538h1.994c.02 0 .04 0 .059.003.14-.22.323-.425.559-.595Zm-2.21 1.905c0-.101-.006-.206-.02-.313h1.32c-.013.107-.02.212-.02.313 0 .332-.281.625-.64.625-.358 0-.64-.293-.64-.625Z" clip-rule="evenodd"/><path d="M10.375 6c0-.345.28-.625.625-.625h.25c.345 0 .625.28.625.625s-.28.625-.625.625h-.25c-.345 0-.625-.28-.625-.625Z"/><path d="M.75 5.375c-.345 0-.625.28-.625.625s.28.625.625.625h.25c.345 0 .625-.28.625-.625s-.28-.625-.625-.625h-.25Z"/><path d="M9.344 2.656c-.244-.244-.244-.64 0-.884l.426-.426c.244-.244.64-.244.884 0s.244.64 0 .884l-.427.426c-.244.244-.64.244-.883 0Z"/><path d="M2.23 1.346c-.245-.244-.64-.244-.884 0s-.244.64 0 .884l.426.426c.245.244.64.244.884 0s.244-.64 0-.884l-.426-.426Z"/></g><defs><clipPath id="a"><path d="M0 0h12v12h-12z"/></clipPath></defs></svg>