<svg xmlns="http://www.w3.org/2000/svg" viewBox="0 0 12 12"><path fill-rule="evenodd" d="M8 4.5c0 1.105-.895 2-2 2s-2-.895-2-2 .895-2 2-2 2 .895 2 2Zm-1.25 0c0 .414-.336.75-.75.75s-.75-.336-.75-.75.336-.75.75-.75.75.336.75.75Z" clip-rule="evenodd"/><path fill-rule="evenodd" d="M10.75 4.767c0 .56-.195 1.413-.506 2.047-.32.652-.764 1.318-1.245 1.946-.82 1.074-1.748 2.036-2.351 2.628-.363.355-.933.355-1.296 0-.603-.592-1.53-1.554-2.351-2.628-.48-.628-.924-1.294-1.245-1.946-.31-.634-.506-1.486-.506-2.046 0-2.761 2.127-4.768 4.75-4.768s4.75 2.005 4.75 4.767Zm-8.25.001c0-2.053 1.55-3.518 3.5-3.518 1.951 0 3.5 1.464 3.5 3.517 0 .353-.144 1.02-.378 1.496-.272.553-.664 1.148-1.116 1.738-.675.884-1.436 1.697-2.006 2.269-.57-.572-1.331-1.385-2.006-2.269-.452-.59-.844-1.185-1.116-1.738-.234-.477-.378-1.142-.378-1.495Z" clip-rule="evenodd"/></svg>