<svg xmlns="http://www.w3.org/2000/svg" viewBox="0 0 12 12"><path d="M5.375 7.833c-.374-.216-.625-.62-.625-1.083 0-.69.56-1.25 1.25-1.25s1.25.56 1.25 1.25c0 .463-.251.867-.625 1.083v.59c0 .318-.28.576-.625.576s-.625-.258-.625-.576v-.59Z"/><path fill-rule="evenodd" d="M3.125 3.5v.028c-1.202.18-2.125 1.219-2.125 2.472v2.75c0 1.38 1.12 2.5 2.5 2.5h5c1.38 0 2.5-1.12 2.5-2.5v-2.75c0-1.253-.922-2.291-2.126-2.472l.001-.028v-.742c0-1.098-.661-2.087-1.676-2.508-.768-.318-1.63-.318-2.398 0-1.015.42-1.676 1.41-1.676 2.509v.741Zm3.596-2.095c-.462-.191-.98-.191-1.442 0-.547.227-.904.761-.904 1.354v.741h3.25v-.742c0-.592-.357-1.126-.904-1.353Zm-3.221 3.345h5c.69 0 1.25.56 1.25 1.25v2.75c0 .69-.56 1.25-1.25 1.25h-5c-.69 0-1.25-.56-1.25-1.25v-2.75c0-.69.56-1.25 1.25-1.25Z" clip-rule="evenodd"/></svg>