<svg xmlns="http://www.w3.org/2000/svg" viewBox="0 0 12 12"><g clip-path="url(#a)"><path fill-rule="evenodd" d="M6 0c-1.519 0-2.75 1.231-2.75 2.75v1.83c0 1.519 1.231 2.75 2.75 2.75s2.75-1.231 2.75-2.75v-1.83c0-1.519-1.231-2.75-2.75-2.75Zm1.5 4.58v-1.83c0-.828-.672-1.5-1.5-1.5s-1.5.672-1.5 1.5v1.83c0 .829.672 1.5 1.5 1.5s1.5-.671 1.5-1.5Z" clip-rule="evenodd"/><path d="M6.523 9.447c1.1-.088 1.966-.458 2.637-1.005.763-.623 1.227-1.44 1.51-2.22.283-.78.394-1.549.437-2.116.022-.285.026-.524.025-.694 0-.085-.002-.153-.004-.2l-.003-.057v-.017l-.001-.005v-.002l-.624.041.624-.042c-.024-.344-.322-.605-.666-.581-.345.023-.605.321-.582.665l.001.008.002.039c.001.035.003.089.003.16.001.14-.003.344-.021.59-.038.497-.135 1.146-.366 1.785-.232.638-.588 1.239-1.126 1.678-.529.431-1.277.744-2.368.743-1.092-.001-1.84-.315-2.37-.747-.538-.44-.894-1.04-1.126-1.678-.231-.638-.328-1.286-.366-1.782-.018-.246-.022-.45-.02-.59l.002-.16.002-.038v-.008c.024-.344-.236-.642-.58-.665-.345-.024-.643.237-.666.58v.004l-.001.005-.001.017-.003.056-.004.2c-.001.17.003.409.025.694.043.566.155 1.335.438 2.113.282.78.746 1.596 1.51 2.22.627.513 1.428.87 2.432.987v1.09h-.896c-.346 0-.625.276-.625.617 0 .342.28.618.625.618h3.247c.345 0 .625-.277.625-.617 0-.342-.28-.618-.625-.618h-1.101v-1.068Z"/></g><defs><clipPath id="a"><path d="M0 0h12v12h-12z"/></clipPath></defs></svg>