<svg xmlns="http://www.w3.org/2000/svg" viewBox="0 0 12 12"><g clip-path="url(#a)"><path fill-rule="evenodd" d="M2.127.507c.342.052.576.369.523.707l-.761 4.914h1.801c.613 0 1.139.439 1.247 1.042.03.162.17.279.333.279h1.268c.17 0 .316-.12.35-.288.117-.6.643-1.033 1.254-1.033h1.978l-.716-4.92c-.05-.338.188-.653.53-.702.341-.048.659.187.708.525l.81 5.566c.032.217.048.436.048.655v1.645c0 1.438-1.176 2.603-2.627 2.603h-5.746c-1.45 0-2.627-1.165-2.627-2.603v-1.627c0-.233.018-.466.054-.696l.86-5.548c.052-.339.372-.57.713-.519Zm-.376 8.39v-1.52h1.94c.007 0 .014.007.016.015.136.756.794 1.307 1.563 1.307h1.268c.768 0 1.428-.544 1.576-1.298.003-.013.015-.023.028-.023h2.107v1.519c0 .753-.616 1.363-1.376 1.363h-5.746c-.76 0-1.376-.61-1.376-1.363Z" clip-rule="evenodd"/><path d="M8.768 1.566c.243-.245.243-.64-.002-.884-.244-.243-.64-.243-.884.002l-2.532 2.542-1.025-1.054c-.24-.248-.636-.253-.884-.012-.247.24-.253.636-.012.883l1.432 1.473c.263.27.697.273.963.006l2.944-2.956Z"/></g><defs><clipPath id="a"><path d="M0 0h12v12h-12z"/></clipPath></defs></svg>