<svg xmlns="http://www.w3.org/2000/svg" viewBox="0 0 16 16"><g clip-path="url(#a)"><path d="M14.704-.896c-.195-.196-.512-.196-.707 0l-.957.957 1.768 1.767.957-.957c.195-.195.195-.512 0-.707l-1.06-1.06Z"/><path d="m14.1 2.536-1.767-1.768-3.83 3.83c-.36.36-.569.841-.585 1.348l-.026.772c-.005.145.114.263.258.258l.772-.025c.507-.017.99-.226 1.348-.585l3.83-3.83Z"/><path d="M3.739 4.067c.09-.613.617-1.067 1.237-1.067h3.774c.414 0 .75-.336.75-.75s-.336-.75-.75-.75h-3.774c-1.364 0-2.521.999-2.72 2.347l-.662 4.46c-.062.425-.094.853-.094 1.282v1.661c0 1.795 1.455 3.25 3.25 3.25h6.5c1.795 0 3.25-1.455 3.25-3.25v-1.66c0-.43-.032-.858-.095-1.283l-.413-2.792c-.06-.41-.442-.693-.852-.632-.41.06-.693.442-.632.852l.336 2.265h-2.484c-.538 0-1.015.344-1.185.855l-.159.474c-.034.102-.13.171-.237.171h-1.558c-.108 0-.203-.069-.237-.17l-.159-.475c-.17-.51-.647-.855-1.185-.855h-2.484l.583-3.933Z"/></g><defs><clipPath id="a"><path d="M0 0h16v16h-16z"/></clipPath></defs></svg>