<svg xmlns="http://www.w3.org/2000/svg" viewBox="0 0 12 12"><g clip-path="url(#a)"><path d="M3.683.686c.244-.244.64-.244.884 0l1.433 1.434 1.433-1.434c.244-.244.64-.244.884 0 .244.245.244.64 0 .884l-1.433 1.433 1.433 1.433c.244.245.244.64 0 .884s-.64.244-.884 0l-1.433-1.433-1.433 1.433c-.244.244-.64.244-.884 0s-.244-.64 0-.884l1.433-1.433-1.433-1.433c-.244-.244-.244-.64 0-.884Z"/><path fill-rule="evenodd" d="M10.946 3.049c-.049-.342-.366-.58-.708-.53-.342.05-.58.366-.53.708l.405 2.806h-1.967c-.612 0-1.138.433-1.256 1.033-.032.168-.179.288-.35.288h-1.267c-.163 0-.304-.117-.333-.278-.108-.604-.633-1.043-1.247-1.043h-1.797l.43-2.8c.053-.341-.181-.66-.523-.713-.341-.052-.66.182-.713.523l-.536 3.487c-.036.233-.054.467-.054.702v1.64c0 1.45 1.176 2.625 2.627 2.625h5.746c1.45 0 2.627-1.175 2.627-2.625v-1.658c0-.22-.016-.442-.047-.66l-.507-3.505Zm-9.195 4.234v1.59c0 .759.616 1.374 1.376 1.374h5.746c.76 0 1.376-.615 1.376-1.375v-1.589h-2.103c-.014 0-.026.01-.029.024-.148.753-.808 1.297-1.576 1.297h-1.268c-.768 0-1.427-.55-1.563-1.307-.001-.008-.008-.014-.017-.014h-1.942Z" clip-rule="evenodd"/></g><defs><clipPath id="a"><path d="M0 0h12v12h-12z"/></clipPath></defs></svg>