<svg xmlns="http://www.w3.org/2000/svg" viewBox="0 0 12 12"><path fill-rule="evenodd" d="M3.875.75c-1.247 0-2.125.868-2.125 2.1v6.3c0 1.232.878 2.1 2.125 2.1h4.25c1.247 0 2.125-.867 2.125-2.1v-4.041c0-.174-.07-.341-.194-.464l-3.586-3.703c-.125-.123-.293-.192-.47-.192h-2.125Zm0 1.313c-.513 0-.797.28-.797.787v6.3c0 .507.284.787.797.787h4.25c.514 0 .797-.28.797-.787v-3.385l-1.86.001c-.954 0-1.726-.764-1.726-1.706v-1.997h-1.461Zm3.5 1.579-.71-.746v1.164c0 .218.177.393.397.393h1.088c-.257-.267-.514-.538-.77-.807l-.005-.004Z" clip-rule="evenodd"/></svg>