<svg xmlns="http://www.w3.org/2000/svg" viewBox="0 0 16 16"><g clip-path="url(#a)"><path d="M3.5 4.5c0-1.933 1.567-3.5 3.5-3.5s3.5 1.567 3.5 3.5-1.567 3.5-3.5 3.5-3.5-1.567-3.5-3.5Z"/><path fill-rule="evenodd" d="M10 9.375c0-1.726 1.4-3.125 3.125-3.125 1.726 0 3.125 1.4 3.125 3.125v1.625c0 .828-.672 1.5-1.5 1.5h-.35c-.07 0-.127.057-.127.127 0 .026.008.051.022.072l.46.667c.14.204.11.482-.073.65l-.182.169c-.192.177-.215.473-.052.678l.286.36c.153.191.144.466-.021.648l-.73.8c-.403.442-1.1.434-1.493-.016l-.494-.567c-.159-.182-.246-.416-.246-.657v-2.681c0-.138-.112-.25-.25-.25-.828 0-1.5-.672-1.5-1.5v-1.625Zm3.125 1.125c.483 0 .875-.392.875-.875s-.392-.875-.875-.875-.875.392-.875.875.392.875.875.875Z"/><path d="m8.752 9.25-.002.125v1.625c0 1.166.726 2.162 1.75 2.563v1.437h-8.251c-1.02 0-1.665-1.096-1.17-1.987l.437-.786c1.106-1.992 3.206-3.227 5.484-3.227.601 0 1.19.086 1.752.25Z"/></g><defs><clipPath id="a"><path d="M0 0h16v16h-16z"/></clipPath></defs></svg>