<svg xmlns="http://www.w3.org/2000/svg" viewBox="0 0 16 16"><g clip-path="url(#a)"><path fill-rule="evenodd" d="M7 1c-1.933 0-3.5 1.567-3.5 3.5s1.567 3.5 3.5 3.5 3.5-1.567 3.5-3.5-1.567-3.5-3.5-3.5Zm-2 3.5c0-1.105.895-2 2-2s2 .895 2 2-.895 2-2 2-2-.895-2-2Z"/><path d="M2.827 12.955c.842-1.515 2.44-2.455 4.173-2.455.414 0 .75-.336.75-.75s-.336-.75-.75-.75c-2.278 0-4.378 1.235-5.484 3.227l-.437.786c-.495.891.15 1.987 1.17 1.987h6.001c.414 0 .75-.336.75-.75s-.336-.75-.75-.75h-5.725l.302-.545Z"/><path d="M13.125 10.5c.483 0 .875-.392.875-.875s-.392-.875-.875-.875-.875.392-.875.875.392.875.875.875Z"/><path fill-rule="evenodd" d="M15.675 12.875c.647-.419 1.075-1.147 1.075-1.975v-1.275c0-2.002-1.623-3.625-3.625-3.625s-3.625 1.623-3.625 3.625v1.275c0 .9.506 1.683 1.25 2.077v1.874c0 .389.114.77.327 1.095l.422.645c.665 1.016 2.074 1.21 2.988.411l.553-.482c.7-.61.86-1.583.494-2.362.189-.395.242-.85.14-1.283Zm-3.472-.914c-.068-.126-.2-.211-.353-.211-.47 0-.85-.38-.85-.85v-1.275c0-1.174.951-2.125 2.125-2.125s2.125.951 2.125 2.125v1.275c0 .47-.38.85-.85.85h-.218c-.188 0-.352.104-.437.257-.025.044-.043.092-.053.143-.007.032-.01.066-.01.1v.072c0 .089.024.176.068.252.013.022.028.044.045.064l.331.405c.023.028.041.057.056.087.018.038.03.079.037.12.03.19-.069.393-.266.473-.089.036-.157.096-.203.168-.089.14-.093.326 0 .47.024.038.055.073.092.103l.198.162c.24.195.247.56.014.764l-.553.482c-.229.2-.581.151-.747-.102l-.422-.645c-.054-.082-.082-.177-.082-.274v-2.701c0-.068-.017-.133-.047-.19Z"/></g><defs><clipPath id="a"><path d="M0 0h16v16h-16z"/></clipPath></defs></svg>