<svg xmlns="http://www.w3.org/2000/svg" viewBox="0 0 12 12"><g clip-path="url(#a)"><path fill-rule="evenodd" d="M3.5 6.086v-1.38h-.019c-.07-.001-.165-.002-.269 0-.227.004-.434.018-.53.039-.27.059-.427.11-.595.202-.188.104-.35.227-.504.363-.158.138-.288.277-.379.38-.045.051-.08.093-.102.121l-.024.03-.004.006c-.202.273-.58.323-.841.112-.262-.211-.31-.604-.108-.877l.001-.001.002-.002.003-.005.012-.015.038-.049c.033-.04.079-.096.137-.163.116-.133.284-.31.49-.492.199-.175.432-.355.72-.513.307-.17.585-.25.906-.32.225-.05.542-.062.758-.066.118-.002.224-.001.3 0h.008v-.331c0-.897.728-1.625 1.625-1.625h5.25c.898 0 1.625.728 1.625 1.625v3c0 .897-.727 1.625-1.625 1.625h-2.868c-.112.193-.265.363-.457.495l-2.846 1.967c-.268.185-.583.284-.907.284h-2.164c-.345 0-.625-.287-.625-.642 0-.355.28-.642.625-.642h2.164c.075 0 .148-.023.21-.066l2.845-1.966c.113-.078.15-.23.087-.354-.058-.112-.184-.168-.303-.135l-3.49.96c-.333.091-.676-.112-.765-.455-.09-.342.109-.694.442-.786l1.177-.324Zm1.625-3.336c-.207 0-.375.168-.375.375v.433h6v-.433c0-.207-.168-.375-.375-.375h-5.25Zm5.625 2.058v1.317c0 .207-.168.375-.375.375h-2.721c-.028-.094-.065-.186-.11-.275-.331-.641-1.05-.963-1.731-.775l-1.063.292v-.934h6Z" clip-rule="evenodd"/></g><defs><clipPath id="a"><path d="M0 0h12v12h-12z"/></clipPath></defs></svg>