<svg xmlns="http://www.w3.org/2000/svg" viewBox="0 0 12 12"><g fill-rule="evenodd" clip-path="url(#a)" clip-rule="evenodd"><path d="M9 3c0 1.657-1.343 3-3 3s-3-1.343-3-3 1.343-3 3-3 3 1.343 3 3Zm-1.25 0c0 .966-.783 1.75-1.75 1.75-.966 0-1.75-.784-1.75-1.75s.784-1.75 1.75-1.75c.967 0 1.75.784 1.75 1.75Z"/><path d="M10.393 11.25h-8.786c-.674 0-1.131-.646-.813-1.24.755-1.407 2.359-3.51 5.206-3.51 2.847 0 4.451 2.103 5.206 3.51.318.594-.139 1.24-.813 1.24Zm-4.393-3.5c1.808 0 3.004 1.123 3.747 2.25h-7.494c.744-1.127 1.939-2.25 3.747-2.25Z"/></g><defs><clipPath id="a"><path d="M0 0h12v12h-12z"/></clipPath></defs></svg>