<svg xmlns="http://www.w3.org/2000/svg" viewBox="0 0 12 12"><g clip-path="url(#a)"><path stroke="#4A4A4A" stroke-width="1.25" d="M1.449 2.722c.186-.897 1.477-1.264 2.375-1.356.204-.02.393.102.473.29l.751 1.763c.117.273-.03.587-.314.674l-1.155.352c-.028.009-.043.038-.031.065.106.247.63 1.377 1.718 2.39 1.074 1 1.986 1.402 2.2 1.488.027.01.056-.004.065-.03l.354-1.094c.088-.269.38-.412.643-.31.89.34 2.07.837 2.126.964.085.191-.234 2.248-1.315 2.567-1.082.318-3.351.42-5.812-1.765-2.46-2.185-2.299-4.939-2.078-5.998Z"/></g><defs><clipPath id="a"><path d="M0 0h12v12h-12z"/></clipPath></defs></svg>