<svg xmlns="http://www.w3.org/2000/svg" viewBox="0 0 12 12"><path d="M8.667 3.691c.243-.244.243-.64-.002-.884-.245-.243-.64-.243-.884.002l-2.532 2.542-1.025-1.054c-.24-.248-.636-.253-.884-.012-.247.24-.253.636-.012.883l1.432 1.473c.263.27.696.273.962.006l2.945-2.956Z"/><path fill-rule="evenodd" d="M2.92 0c-.922 0-1.67.72-1.67 1.61v8.84c0 .758.938 1.15 1.512.634l1.382-1.245 1.166 1.35c.359.415 1.021.415 1.38 0l1.166-1.35 1.382 1.245c.574.517 1.512.124 1.512-.634v-8.84c0-.89-.748-1.61-1.67-1.61h-6.16Zm-.386 1.61c0-.205.172-.372.385-.372h6.162c.213 0 .385.167.385.372v7.985l-1.032-.929c-.377-.34-.973-.304-1.303.079l-1.13 1.308-1.131-1.308c-.33-.383-.926-.419-1.304-.079l-1.032.93v-7.986Z" clip-rule="evenodd"/></svg>