<svg xmlns="http://www.w3.org/2000/svg" viewBox="0 0 12 12"><path d="M6.142 3.443c.245-.244.245-.64.001-.884-.243-.245-.64-.245-.883-.001l-1.701 1.697c-.118.117-.184.276-.184.442 0 .166.066.325.184.443l1.7 1.697c.245.244.64.243.884 0 .244-.245.244-.641 0-.885l-.632-.63h.989c.483 0 .875.392.875.875v.461c0 .345.28.625.625.625s.625-.28.625-.625v-.46c0-1.174-.951-2.126-2.125-2.126h-.989l.631-.63Z"/><path fill-rule="evenodd" d="M2.92 0c-.922 0-1.67.72-1.67 1.61v8.84c0 .758.938 1.15 1.512.634l1.382-1.245 1.166 1.35c.359.415 1.021.415 1.38 0l1.166-1.35 1.382 1.245c.574.517 1.512.124 1.512-.634v-8.84c0-.89-.748-1.61-1.67-1.61h-6.16Zm-.386 1.61c0-.205.172-.372.385-.372h6.162c.213 0 .385.167.385.372v7.985l-1.032-.929c-.377-.34-.973-.304-1.303.079l-1.13 1.308-1.131-1.308c-.33-.383-.926-.419-1.304-.079l-1.032.93v-7.986Z" clip-rule="evenodd"/></svg>