<svg xmlns="http://www.w3.org/2000/svg" viewBox="0 0 16 16"><g fill-rule="evenodd" clip-path="url(#a)"><path d="M.5 6.457c-.3.107-.648.012-.85-.257-.249-.332-.181-.802.15-1.05l.6-.45c.66-.495 1.6-.024 1.6.8v4h.25c.414 0 .75.336.75.75s-.336.75-.75.75h-2c-.414 0-.75-.336-.75-.75s.336-.75.75-.75h.25v-3.043Z"/><path d="M4 6.25c0-.967.784-1.75 1.75-1.75.967 0 1.75.783 1.75 1.75v.125c0 .56-.17 1.106-.489 1.565l-1.08 1.56h.819c.414 0 .75.336.75.75s-.336.75-.75.75h-1.773c-.807 0-1.281-.906-.822-1.57l1.623-2.343c.144-.21.222-.458.222-.712v-.125c0-.138-.112-.25-.25-.25s-.25.112-.25.25c0 .414-.336.75-.75.75s-.75-.336-.75-.75Z"/><path d="M8.5 5.25c0-.414.336-.75.75-.75h1c.966 0 1.75.783 1.75 1.75v.247c0 .47-.163.907-.44 1.253.277.346.44.783.44 1.253v.247c0 .966-.784 1.75-1.75 1.75h-1c-.414 0-.75-.336-.75-.75s.336-.75.75-.75h1c.138 0 .25-.112.25-.25v-.247c0-.235-.163-.438-.392-.489l-.065-.014h-.293c-.414 0-.75-.336-.75-.75s.336-.75.75-.75h.293l.066-.015c.228-.05.391-.254.391-.488v-.247c0-.138-.112-.25-.25-.25h-1c-.414 0-.75-.336-.75-.75Z"/><path d="M13 10.75c0-.414.336-.75.75-.75h2c.414 0 .75.336.75.75s-.336.75-.75.75h-2c-.414 0-.75-.336-.75-.75Z"/></g><defs><clipPath id="a"><path d="M0 0h16v16h-16z"/></clipPath></defs></svg>