<svg xmlns="http://www.w3.org/2000/svg" viewBox="0 0 16 17"><path fill-rule="evenodd" d="M6.654 12.33c-.155-.134-.293-.293-.41-.48-.127-.206-.373-.307-.61-.252-.219.05-.435.065-.643.048l-.935 1.604h.56c.335 0 .647.167.832.445l.244.365.962-1.73Zm-3.011-1.349c-.437-.475-.656-1.153-.49-1.866.055-.236-.047-.482-.253-.61-1.3-.81-1.3-2.7 0-3.51.206-.128.308-.374.253-.61-.347-1.491.99-2.83 2.482-2.482.236.055.482-.047.61-.253.81-1.3 2.7-1.3 3.51 0 .128.206.374.308.61.253 1.492-.347 2.83.99 2.482 2.482-.055.236.047.482.253.61 1.3.81 1.3 2.7 0 3.51-.206.128-.308.374-.252.61.159.686-.038 1.338-.44 1.81l1.353 2.321c.389.667-.092 1.504-.864 1.504h-1.227l-.478.781c-.396.649-1.342.635-1.72-.024l-1.457-2.539-1.41 2.538c-.364.654-1.291.692-1.706.069l-.55-.825h-1.164c-.771 0-1.252-.837-.863-1.504l1.32-2.265Zm6.71 3.048-.986-1.718c.146-.13.277-.283.388-.46.128-.207.374-.309.61-.254.247.058.49.07.721.041l.94 1.612h-.636c-.348 0-.671.181-.853.478l-.184.301Zm-1.871-2.972c-.222.357-.742.357-.964 0-.467-.75-1.361-1.12-2.223-.92-.41.095-.777-.273-.681-.682.2-.862-.17-1.756-.921-2.223-.357-.222-.357-.742 0-.964.75-.467 1.121-1.361.92-2.223-.095-.41.273-.777.682-.681.862.2 1.756-.17 2.223-.921.222-.357.742-.357.964 0 .467.75 1.361 1.121 2.223.92.41-.095.777.273.681.682-.2.862.17 1.756.921 2.223.357.222.357.742 0 .964-.75.467-1.121 1.361-.92 2.223.095.41-.273.777-.682.681-.862-.2-1.756.17-2.223.921Z"/></svg>