<svg xmlns="http://www.w3.org/2000/svg" viewBox="0 0 16 16"><g clip-path="url(#a)"><path d="M.25 5.218c-.293.293-.293.768 0 1.06.293.293.767.293 1.06 0 3.71-3.71 9.725-3.71 13.435 0 .293.293.768.293 1.061 0 .293-.292.293-.767 0-1.06-4.296-4.296-11.26-4.296-15.556 0Z"/><path d="M2.725 8.753c-.293-.293-.293-.768 0-1.06 2.928-2.93 7.677-2.93 10.606 0 .293.292.293.767 0 1.06-.293.293-.768.293-1.06 0-2.344-2.343-6.143-2.343-8.486 0-.293.293-.768.293-1.06 0Z"/><path d="M4.846 9.814c-.293.293-.293.767 0 1.06.293.293.768.293 1.06 0 1.172-1.171 3.072-1.171 4.243 0 .293.293.768.293 1.06 0 .294-.293.294-.768 0-1.06-1.757-1.758-4.606-1.758-6.363 0Z"/><path d="M6.967 11.936c-.586.585-.586 1.535 0 2.121.586.586 1.536.586 2.122 0 .585-.586.585-1.536 0-2.121-.586-.586-1.536-.586-2.122 0Z"/></g><defs><clipPath id="a"><path d="M0 0h16v16h-16z"/></clipPath></defs></svg>